<svg width="266" height="211" viewBox="0 0 266 211" fill="none" xmlns="http://www.w3.org/2000/svg">
<path d="M173.772 1.34353L178.203 59.5934C178.219 59.8156 178.087 60.0203 177.878 60.0953L18.3253 117.38C18.0436 117.481 17.7337 117.312 17.664 117.019L4.48356 61.6533C4.42532 61.4086 4.55728 61.1611 4.792 61.0746L82.4063 32.4915L82.4146 32.4886L173.103 0.903235C173.415 0.794829 173.747 1.01381 173.772 1.34353Z" fill="white" stroke="black"/>
<path d="M192.236 22.5548L196.667 80.8046C196.683 81.0268 196.551 81.2315 196.342 81.3065L36.7893 138.591C36.5076 138.692 36.1976 138.523 36.128 138.231L22.9475 82.8645C22.8893 82.6199 23.0213 82.3723 23.256 82.2859L100.87 53.7027L100.879 53.6998L191.567 22.1145C191.879 22.0061 192.211 22.225 192.236 22.5548Z" fill="white" stroke="black"/>
<path d="M211.787 49.9133L216.217 108.163C216.234 108.385 216.101 108.59 215.892 108.665L56.3394 165.95C56.0577 166.051 55.7477 165.882 55.678 165.589L42.4976 110.223C42.4394 109.978 42.5714 109.731 42.8061 109.644L120.42 81.0613L120.429 81.0584L211.117 49.473C211.429 49.3646 211.761 49.5836 211.787 49.9133Z" fill="white" stroke="black"/>
<path d="M233.509 75.6851L237.939 133.935C237.956 134.157 237.824 134.362 237.615 134.437L78.0617 191.722C77.78 191.823 77.4701 191.654 77.4004 191.361L64.22 135.995C64.1617 135.75 64.2937 135.503 64.5284 135.416L142.143 106.833L142.151 106.83L232.84 75.2448C233.151 75.1364 233.484 75.3554 233.509 75.6851Z" fill="white" stroke="black"/>
<path d="M257.403 93.527L261.834 151.777C261.85 151.999 261.718 152.204 261.509 152.279L101.956 209.564C101.675 209.665 101.365 209.496 101.295 209.203L88.1145 153.837C88.0563 153.592 88.1883 153.345 88.423 153.258L166.037 124.675L166.046 124.672L256.734 93.0867C257.046 92.9783 257.378 93.1973 257.403 93.527Z" fill="white" stroke="black"/>
<path d="M83.631 127.867V57.0856H102.112V112.423H128.453V127.867H83.631ZM171.683 127.867V97.9473C171.683 90.5884 169.578 86.9089 165.367 86.9089C162.373 86.9089 160.158 88.216 158.723 90.8305C157.32 93.4126 156.618 97.7215 156.618 103.757V127.867H138.324V52.5347H156.618V63.2343C156.618 68.0757 156.368 73.5949 155.869 79.7919H156.712C158.458 76.9516 160.532 74.9505 162.934 73.7887C165.336 72.6266 168.127 72.0456 171.309 72.0456C177.235 72.0456 181.836 73.8209 185.111 77.3712C188.417 80.8894 190.07 85.8277 190.07 92.186V127.867H171.683Z" fill="black"/>
</svg>
