<svg width="328" height="275" viewBox="0 0 328 275" fill="none" xmlns="http://www.w3.org/2000/svg">
<rect width="328" height="275" fill="black"/>
<path d="M31.4836 90.6533C31.4253 90.4086 31.5573 90.1611 31.792 90.0746L109.406 61.4915L109.415 61.4886L200.103 29.9032C200.415 29.7948 200.747 30.0138 200.772 30.3435L205.203 88.5934C205.219 88.8156 205.087 89.0203 204.878 89.0953L45.3253 146.38C45.0436 146.481 44.7337 146.312 44.664 146.019L31.4836 90.6533Z" fill="#FCE205" stroke="black"/>
<path d="M49.9474 111.865C49.8892 111.62 50.0211 111.372 50.2559 111.286L127.87 82.7027L127.878 82.6998L218.567 51.1145C218.878 51.0061 219.211 51.225 219.236 51.5548L223.666 109.805C223.683 110.027 223.551 110.232 223.342 110.307L63.7892 167.591C63.5075 167.692 63.1975 167.523 63.1278 167.231L49.9474 111.865Z" fill="#FCE205" stroke="black"/>
<path d="M69.4977 139.223C69.4395 138.978 69.5714 138.731 69.8062 138.644L147.42 110.061L147.429 110.058L238.118 78.473C238.429 78.3646 238.762 78.5836 238.787 78.9133L243.217 137.163C243.234 137.385 243.101 137.59 242.892 137.665L83.3395 194.95C83.0578 195.051 82.7478 194.882 82.6781 194.589L69.4977 139.223Z" fill="#FCE205" stroke="black"/>
<path d="M91.2199 164.995C91.1616 164.75 91.2936 164.503 91.5283 164.416L169.143 135.833L169.151 135.83L259.84 104.245C260.151 104.136 260.484 104.355 260.509 104.685L264.939 162.935C264.956 163.157 264.824 163.362 264.614 163.437L105.062 220.722C104.78 220.823 104.47 220.654 104.4 220.361L91.2199 164.995Z" fill="#FCE205" stroke="black"/>
<path d="M115.114 182.837C115.056 182.592 115.188 182.345 115.423 182.258L193.037 153.675L193.045 153.672L283.734 122.087C284.045 121.978 284.378 122.197 284.403 122.527L288.833 180.777C288.85 180.999 288.718 181.204 288.509 181.279L128.956 238.564C128.674 238.665 128.365 238.496 128.295 238.203L115.114 182.837Z" fill="#FCE205" stroke="black"/>
<path d="M110.631 156.867V86.0856H129.112V141.423H155.452V156.867H110.631ZM198.683 156.867V126.947C198.683 119.588 196.578 115.909 192.367 115.909C189.373 115.909 187.158 117.216 185.723 119.831C184.32 122.413 183.618 126.721 183.618 132.757V156.867H165.324V81.5347H183.618V92.2343C183.618 97.0757 183.368 102.595 182.869 108.792H183.711C185.458 105.952 187.532 103.951 189.934 102.789C192.336 101.627 195.127 101.046 198.309 101.046C204.235 101.046 208.836 102.821 212.111 106.371C215.417 109.889 217.07 114.828 217.07 121.186V156.867H198.683Z" fill="black"/>
</svg>
