<svg width="334" height="280" viewBox="0 0 334 280" fill="none" xmlns="http://www.w3.org/2000/svg">
<rect width="334" height="280" fill="black"/>
<path d="M207.772 30.3435L212.203 88.5934C212.219 88.8156 212.087 89.0203 211.878 89.0953L52.3253 146.38C52.0436 146.481 51.7337 146.312 51.664 146.019L38.4836 90.6533C38.4253 90.4086 38.5573 90.1611 38.792 90.0746L116.406 61.4915L116.415 61.4886L207.103 29.9032C207.415 29.7948 207.747 30.0138 207.772 30.3435Z" fill="white" stroke="black"/>
<path d="M226.236 51.5548L230.667 109.805C230.683 110.027 230.551 110.232 230.342 110.307L70.7893 167.591C70.5076 167.692 70.1977 167.523 70.128 167.231L56.9475 111.865C56.8893 111.62 57.0213 111.372 57.256 111.286L134.87 82.7027L134.879 82.6998L225.567 51.1145C225.879 51.0061 226.211 51.225 226.236 51.5548Z" fill="white" stroke="black"/>
<path d="M245.787 78.9133L250.217 137.163C250.234 137.385 250.101 137.59 249.892 137.665L90.3394 194.95C90.0577 195.051 89.7477 194.882 89.678 194.589L76.4976 139.223C76.4394 138.978 76.5713 138.731 76.8061 138.644L154.42 110.061L154.429 110.058L245.117 78.473C245.429 78.3646 245.761 78.5836 245.787 78.9133Z" fill="white" stroke="black"/>
<path d="M267.509 104.685L271.939 162.935C271.956 163.157 271.824 163.362 271.615 163.437L112.062 220.722C111.78 220.823 111.47 220.654 111.4 220.361L98.22 164.995C98.1617 164.75 98.2937 164.503 98.5284 164.416L176.143 135.833L176.151 135.83L266.84 104.245C267.151 104.136 267.484 104.355 267.509 104.685Z" fill="white" stroke="black"/>
<path d="M291.403 122.527L295.834 180.777C295.85 180.999 295.718 181.204 295.509 181.279L135.956 238.564C135.675 238.665 135.365 238.496 135.295 238.203L122.115 182.837C122.056 182.592 122.188 182.345 122.423 182.258L200.037 153.675L200.046 153.672L290.734 122.087C291.046 121.978 291.378 122.197 291.403 122.527Z" fill="white" stroke="black"/>
<path d="M117.631 156.867V86.0856H136.112V141.423H162.453V156.867H117.631ZM205.683 156.867V126.947C205.683 119.588 203.578 115.909 199.367 115.909C196.373 115.909 194.158 117.216 192.723 119.831C191.32 122.413 190.618 126.721 190.618 132.757V156.867H172.324V81.5347H190.618V92.2343C190.618 97.0757 190.368 102.595 189.869 108.792H190.712C192.458 105.952 194.532 103.951 196.934 102.789C199.336 101.627 202.127 101.046 205.309 101.046C211.235 101.046 215.836 102.821 219.111 106.371C222.417 109.889 224.07 114.828 224.07 121.186V156.867H205.683Z" fill="black"/>
</svg>
