<svg width="330" height="275" viewBox="0 0 330 275" fill="none" xmlns="http://www.w3.org/2000/svg">
<path d="M5.38362 80.113C5.32899 79.8719 5.45852 79.628 5.6885 79.5391L5.50556 79.0728L5.6885 79.5391L102.197 42.2012L102.205 42.1979L215.002 0.926908C215.314 0.812545 215.651 1.03067 215.675 1.36315L221.216 77.8988C221.232 78.1186 221.102 78.3221 220.896 78.3998L22.5348 153.218C22.2503 153.325 21.9353 153.155 21.868 152.858L5.38362 80.113Z" fill="#FCE205" stroke="black"/>
<path d="M28.2901 107.758C28.2355 107.517 28.365 107.273 28.595 107.184L28.412 106.718L28.595 107.184L125.103 69.8461L125.112 69.8429L237.908 28.5719C238.221 28.4575 238.557 28.6756 238.582 29.0081L244.122 105.544C244.138 105.764 244.008 105.967 243.802 106.045L45.4413 180.863C45.1568 180.97 44.8418 180.8 44.7744 180.503L28.2901 107.758Z" fill="#FCE205" stroke="black"/>
<path d="M52.544 143.415C52.4894 143.174 52.6189 142.93 52.8489 142.841L52.666 142.375L52.8489 142.841L149.357 105.503L149.366 105.5L262.162 64.2288C262.475 64.1144 262.811 64.3325 262.835 64.665L268.376 141.201C268.392 141.421 268.262 141.624 268.056 141.702L69.6952 216.52C69.4107 216.627 69.0957 216.457 69.0284 216.16L52.544 143.415Z" fill="#FCE205" stroke="black"/>
<path d="M79.4928 177.004C79.4381 176.762 79.5676 176.519 79.7976 176.43L79.6147 175.963L79.7976 176.43L176.306 139.092L176.314 139.089L289.111 97.8175C289.423 97.7032 289.76 97.9213 289.784 98.2538L295.325 174.789C295.341 175.009 295.211 175.213 295.005 175.29L96.6439 250.109C96.3595 250.216 96.0444 250.046 95.9771 249.749L79.4928 177.004Z" fill="#FCE205" stroke="black"/>
<path d="M319.428 121.508L324.968 198.043C324.984 198.263 324.854 198.466 324.649 198.544L126.287 273.363C126.003 273.47 125.688 273.3 125.621 273.003L109.136 200.257C109.082 200.016 109.211 199.772 109.441 199.683L205.949 162.346L205.958 162.342L318.754 121.071C319.067 120.957 319.404 121.175 319.428 121.508Z" fill="#FCE205" stroke="black"/>
<path d="M103.753 166.652V74.4007H126.68V146.523H159.358V166.652H103.753ZM212.991 166.652V127.656C212.991 118.065 210.378 113.27 205.155 113.27C201.44 113.27 198.692 114.974 196.912 118.381C195.171 121.746 194.3 127.362 194.3 135.228V166.652H171.605V68.4694H194.3V82.4143C194.3 88.7242 193.991 95.9175 193.372 103.994H194.417C196.583 100.292 199.157 97.6843 202.136 96.17C205.116 94.6556 208.579 93.8983 212.526 93.8983C219.878 93.8983 225.586 96.212 229.649 100.839C233.751 105.425 235.802 111.861 235.802 120.148V166.652H212.991Z" fill="black"/>
</svg>
