<svg width="417" height="472" viewBox="0 0 417 472" fill="none" xmlns="http://www.w3.org/2000/svg">
<path d="M11.0489 378.392L39.0739 97.8846H285.426L314.464 378.392H11.0489Z" stroke="white" stroke-width="20"/>
<path d="M94.0486 165.769C94.0486 165.769 94.4899 10 166.839 10C239.188 10 231.247 165.769 231.247 165.769" stroke="white" stroke-width="20"/>
<ellipse cx="94.4103" cy="165.769" rx="14.8307" ry="12.7022" fill="white"/>
<ellipse cx="231.866" cy="165.769" rx="14.8307" ry="12.7022" fill="white"/>
<rect x="149.059" y="238.414" width="267.941" height="233.586" fill="black"/>
<path d="M169.745 453.381L181.789 255.31H382.16L397.941 453.381H169.745Z" stroke="white" stroke-width="20"/>
<path d="M239.739 295.302C239.739 295.302 228.246 369.429 280.891 369.429C333.536 369.429 321.662 295.302 321.662 295.302" stroke="white" stroke-width="20"/>
<ellipse cx="239.135" cy="294.871" rx="16.0033" ry="15.084" fill="white"/>
<ellipse cx="322.352" cy="294.871" rx="16.0033" ry="15.084" fill="white"/>
</svg>
